<svg xmlns="http://www.w3.org/2000/svg" xmlns:xlink="http://www.w3.org/1999/xlink" width="58" height="58" viewBox="0 0 58 58">
  <defs>
    <linearGradient id="linear-gradient" x1="0.5" x2="0.5" y2="1" gradientUnits="objectBoundingBox">
      <stop offset="0" stop-color="#fff"/>
      <stop offset="0.173" stop-color="#fffbb1"/>
      <stop offset="0.5" stop-color="#fff41c"/>
      <stop offset="0.791" stop-color="#fdc210"/>
      <stop offset="1" stop-color="#f9811d"/>
    </linearGradient>
    <clipPath id="clip-Artboard_1">
      <rect width="58" height="58"/>
    </clipPath>
  </defs>
  <g id="Artboard_1" data-name="Artboard – 1" clip-path="url(#clip-Artboard_1)">
    <circle id="Ellipse_1" data-name="Ellipse 1" cx="29" cy="29" r="29" fill="url(#linear-gradient)"/>
    <path id="Path_1" data-name="Path 1" d="M9.6-4.432v.92a4.854,4.854,0,0,1-2.322.935,3.482,3.482,0,0,1-.991-.156A15.88,15.88,0,0,1,4.1-.368a2.889,2.889,0,0,1-1.834.75A1.782,1.782,0,0,1,.63-.736,6.042,6.042,0,0,1,.057-3.512,10.873,10.873,0,0,1,1.416-8.418a27.182,27.182,0,0,1,3.278-4.97,30.2,30.2,0,0,1,3.717-3.83,5.62,5.62,0,0,1,2.436-1.515q.609,0,.609.835,0,3.71-9.516,12.942-.028.255-.028,1.005Q1.912-2,2.959-2a1.333,1.333,0,0,0,.828-.333A13.631,13.631,0,0,0,5.069-3.6a3.2,3.2,0,0,1-.34-1.133,2.989,2.989,0,0,1,.637-1.685A7.671,7.671,0,0,1,6.818-7.979,2.432,2.432,0,0,1,8-8.638q.581,0,.581.835a4.507,4.507,0,0,1-.333,1.529,15.332,15.332,0,0,1-.97,2.039,4.575,4.575,0,0,0,.382.29.788.788,0,0,0,.425.092A2.84,2.84,0,0,0,9.6-4.432ZM2.407-6.556a14.071,14.071,0,0,0,1.48-1.508q.743-.871,2.174-2.669,1.374-1.728,2.159-2.882A19.7,19.7,0,0,0,9.4-15.534a2.942,2.942,0,0,0,.4-1.048q0-.212-.113-.212-.312,0-1.3,1.027a24.926,24.926,0,0,0-2.244,2.811Q4.4-10.493,3.625-9.247A11.191,11.191,0,0,0,2.407-6.556ZM9.459-3.37v-.92A13.918,13.918,0,0,0,10.62-5.834a1.564,1.564,0,0,1-.658-.382.984.984,0,0,1-.205-.68,2.866,2.866,0,0,1,.425-1.289,7.4,7.4,0,0,1,1.048-1.458,3.282,3.282,0,0,1,1.133-.878.854.854,0,0,1,.382-.1q.283,0,.283.269a2.684,2.684,0,0,1-.439.977,33.642,33.642,0,0,1,3.682-.453,1.021,1.021,0,0,1,.411.057.993.993,0,0,1,.4.595,2.94,2.94,0,0,1,.156.935,1.1,1.1,0,0,1-.262.644,12.865,12.865,0,0,1-.9,1.012,8.432,8.432,0,0,0-1.26,1.756A3.465,3.465,0,0,0,14.3-3.4q0,.666.821.666.864,0,3-1.756v.949Q16.95-2.308,16.185-1.6A10.4,10.4,0,0,1,14.769-.474a2.223,2.223,0,0,1-1.161.418A1.186,1.186,0,0,1,12.617-.6a2.661,2.661,0,0,1-.4-1.579,3.8,3.8,0,0,1,.312-1.388,9.633,9.633,0,0,1,.913-1.692A20.807,20.807,0,0,1,14.8-7.08q-.4.085-.892.177t-1.048.191q-.552.1-.85.156A10.212,10.212,0,0,1,9.459-3.37ZM19.725-7A17.2,17.2,0,0,1,23.9-9.9a8.167,8.167,0,0,1,3.129-.949.781.781,0,0,1,.552.248,1.884,1.884,0,0,1,.4.573,1.336,1.336,0,0,1,.149.481.408.408,0,0,1-.2.375,3.95,3.95,0,0,1-.694.29L27.5-8.3q.156.354.241.573a1.1,1.1,0,0,1,.085.389,2.981,2.981,0,0,1-.687,1.267q-.687.927-.963,1.366A1.982,1.982,0,0,0,25.9-3.625q0,1.048.963,1.048.991,0,3.1-1.855v.864Q26.38.411,24.837.411A.864.864,0,0,1,24.051.05a1.985,1.985,0,0,1-.234-1.069,10.087,10.087,0,0,1,.807-3.243Q22.557-1.968,21.552-1a2.769,2.769,0,0,1-1.657.97q-.312,0-.779-.538a5.189,5.189,0,0,1-.828-1.395,4.532,4.532,0,0,1-.361-1.777,4.114,4.114,0,0,1,.127-1.112,2.694,2.694,0,0,1,.5-.913A12.618,12.618,0,0,1,19.725-7Zm6.783-1.558a30.653,30.653,0,0,0-5.246,2.86A3.19,3.19,0,0,0,19.7-3.271a1.565,1.565,0,0,0,.156.743.472.472,0,0,0,.425.29,1.548,1.548,0,0,0,.552-.2,11.13,11.13,0,0,0,2.719-2.287Q24.78-6.131,26.508-8.553ZM39.379-7.023q-2.492,2.775-2.492,3.866,0,.609.5.609a2.139,2.139,0,0,0,1.069-.432q.658-.432,2.06-1.536v.977Q38.5-1.558,37.425-.68A3.136,3.136,0,0,1,35.669.2q-1.161,0-1.161-1.529a2.889,2.889,0,0,1,.142-.892,5.884,5.884,0,0,1,.389-.913q.248-.474.758-1.359t1.175-2a8.9,8.9,0,0,0-2.025,1.628A15.807,15.807,0,0,0,33.6-3.42q-.552.687-1.182,1.529A12.008,12.008,0,0,1,31.5-.758a.842.842,0,0,1-.588.29q-.453,0-.835-.949a5.883,5.883,0,0,1-.382-2.209,3.354,3.354,0,0,1,.177-1.218,8.155,8.155,0,0,1,.7-1.246,13.846,13.846,0,0,1,1.685-2.2,2.007,2.007,0,0,1,1.359-.7,1.48,1.48,0,0,1,.729.156.516.516,0,0,1,.276.481.622.622,0,0,1-.085.3,1.749,1.749,0,0,1-.191.283q-.106.127-.446.5Q31.662-4.8,31.662-4.064q0,.411.269.411.17,0,.658-.545t1.26-1.43a22.98,22.98,0,0,1,1.827-1.848,19.712,19.712,0,0,1,2.4-1.855,2.366,2.366,0,0,1,1.246-.524q.227,0,.446.623a3.769,3.769,0,0,1,.219,1.26Q39.988-7.661,39.379-7.023ZM46.9-4.432q-1.246,1.416-2.23,2.407a19.564,19.564,0,0,1-1.6,1.48,1.934,1.934,0,0,1-.843.489q-.368,0-.828-.595a5.417,5.417,0,0,1-.786-1.515,5.566,5.566,0,0,1-.326-1.869A4.077,4.077,0,0,1,41.617-6.8a12.185,12.185,0,0,1,3.03-2.315,6.173,6.173,0,0,1,2.549-.92,1.8,1.8,0,0,1,1.359.878q1.09-2.28,2.074-4.05a22.39,22.39,0,0,1,1.65-2.634q.666-.864.949-.864a.754.754,0,0,1,.573.3,1.025,1.025,0,0,1,.262.687,6.2,6.2,0,0,1-1.076,2.528Q51.911-11.4,50.863-9.7a30.3,30.3,0,0,0-1.8,3.349,7.425,7.425,0,0,0-.75,3.052q0,1.274.821,1.274a2.286,2.286,0,0,0,1.246-.559A26.344,26.344,0,0,0,52.52-4.46v1.034Q49.461.524,47.8.524a1.014,1.014,0,0,1-.956-.51,3.133,3.133,0,0,1-.29-1.515A13.918,13.918,0,0,1,46.9-4.432Zm1.048-3.455a18.5,18.5,0,0,0-2.959,1.366,12.182,12.182,0,0,0-2.053,1.3,2.425,2.425,0,0,0-.552,1.062,4.4,4.4,0,0,0-.241,1.175.567.567,0,0,0,.142.4.459.459,0,0,0,.354.156.848.848,0,0,0,.453-.17,8.892,8.892,0,0,0,.814-.666q.559-.5.729-.637.241-.212,1.069-.913t1.211-1.1a4.159,4.159,0,0,0,.651-.885A3.642,3.642,0,0,0,47.946-7.887Z" transform="matrix(0.966, -0.259, 0.259, 0.966, 5, 44)" fill="#fdfefe"/>
  </g>
</svg>
